<svg xmlns="http://www.w3.org/2000/svg" xmlns:xlink="http://www.w3.org/1999/xlink" width="500" zoomAndPan="magnify" viewBox="0 0 375 374.999991" height="500" preserveAspectRatio="xMidYMid meet" version="1.0"><defs><g/><clipPath id="ec829d4fc4"><path d="M 169.078125 167.488281 L 291.070312 167.488281 L 291.070312 192 L 169.078125 192 Z M 169.078125 167.488281 " clip-rule="nonzero"/></clipPath></defs><rect x="-37.5" width="450" fill="#ffffff" y="-37.499999" height="449.999989" fill-opacity="1"/><rect x="-37.5" width="450" fill="#ffffff" y="-37.499999" height="449.999989" fill-opacity="1"/><rect x="-37.5" width="450" fill="#f8f8f8" y="-37.499999" height="449.999989" fill-opacity="1"/><g fill="#000000" fill-opacity="1"><g transform="translate(102.89356, 176.317529)"><g><path d="M 79.78125 0 L 7.203125 0 L 7.484375 -1.734375 C 12.285156 -1.734375 15.789062 -2.644531 18 -4.46875 C 20.40625 -6.476562 21.609375 -15.835938 21.609375 -32.546875 L 21.609375 -68.265625 C 21.609375 -78.535156 21.296875 -85.566406 20.671875 -89.359375 C 20.046875 -93.148438 19.15625 -95.523438 18 -96.484375 C 15.789062 -98.316406 12.285156 -99.234375 7.484375 -99.234375 L 7.203125 -100.8125 L 74.453125 -100.8125 L 74.453125 -80.078125 L 72.734375 -80.359375 C 72.734375 -86.796875 69.347656 -91.257812 62.578125 -93.75 C 55.804688 -96.25 45.460938 -97.5 31.546875 -97.5 L 31.546875 -52.140625 C 40.753906 -52.140625 47.375 -52.617188 51.40625 -53.578125 C 55.445312 -54.535156 58.039062 -56 59.1875 -57.96875 C 60.34375 -59.9375 60.921875 -63.222656 60.921875 -67.828125 L 62.5 -68.125 L 62.5 -33.125 L 60.921875 -33.40625 C 60.921875 -38.113281 60.34375 -41.425781 59.1875 -43.34375 C 58.039062 -45.269531 55.445312 -46.6875 51.40625 -47.59375 C 47.375 -48.507812 40.753906 -48.96875 31.546875 -48.96875 L 31.546875 -30.390625 C 31.546875 -20.210938 31.90625 -13.441406 32.625 -10.078125 C 33.34375 -6.722656 34.945312 -4.46875 37.4375 -3.3125 C 64.519531 -3.3125 78.0625 -9.070312 78.0625 -20.59375 L 79.78125 -20.875 Z M 79.78125 0 "/></g></g></g><g clip-path="url(#ec829d4fc4)"><path fill="#f8f8f8" d="M 169.078125 167.488281 L 291.75 167.488281 L 291.75 191.722656 L 169.078125 191.722656 Z M 169.078125 167.488281 " fill-opacity="1" fill-rule="nonzero"/></g><g fill="#000000" fill-opacity="1"><g transform="translate(112.489451, 253.232914)"><g><path d="M 69.796875 -1.890625 C 73.785156 -1.890625 76.59375 -2.203125 78.21875 -2.828125 C 79.84375 -3.460938 80.65625 -5.09375 80.65625 -7.71875 C 80.65625 -10.34375 77.875 -19.269531 72.3125 -34.5 L 24.265625 -34.5 C 19.742188 -21.164062 17.484375 -12.789062 17.484375 -9.375 C 17.484375 -5.957031 18.347656 -3.851562 20.078125 -3.0625 C 21.816406 -2.28125 24.945312 -1.890625 29.46875 -1.890625 L 29.78125 0 L -5.671875 0 L -5.359375 -1.890625 C -2.304688 -1.890625 0.0820312 -2.148438 1.8125 -2.671875 C 3.539062 -3.203125 5.429688 -4.59375 7.484375 -6.84375 C 9.535156 -9.101562 11.503906 -12.382812 13.390625 -16.6875 C 15.285156 -21 17.546875 -27.039062 20.171875 -34.8125 L 34.1875 -75.3125 C 39.125 -89.59375 41.59375 -98.253906 41.59375 -101.296875 C 41.59375 -104.347656 40.859375 -106.316406 39.390625 -107.203125 C 37.921875 -108.097656 35.082031 -108.546875 30.875 -108.546875 L 30.5625 -110.28125 L 56.5625 -110.28125 L 84.4375 -34.8125 C 89.164062 -22.3125 92.34375 -14.378906 93.96875 -11.015625 C 95.601562 -7.660156 97.15625 -5.507812 98.625 -4.5625 C 101.25 -2.78125 104.554688 -1.890625 108.546875 -1.890625 L 108.859375 0 L 69.484375 0 Z M 47.734375 -101.78125 L 25.515625 -38.28125 L 71.046875 -38.28125 Z M 47.734375 -101.78125 "/></g></g></g></svg>